<?xml version="1.0" encoding="utf-8"?>
<!-- Svg Vector Icons : http://www.onlinewebfonts.com/icon -->
<!DOCTYPE svg PUBLIC "-//W3C//DTD SVG 1.1//EN" "http://www.w3.org/Graphics/SVG/1.1/DTD/svg11.dtd">
<svg version="1.1" xmlns="http://www.w3.org/2000/svg" xmlns:xlink="http://www.w3.org/1999/xlink" x="0px" y="0px" viewBox="0 0 1000 1000" enable-background="new 0 0 1000 1000" xml:space="preserve">
<metadata> Svg Vector Icons : http://www.onlinewebfonts.com/icon </metadata>
<g><g transform="translate(0.000000,511.000000) scale(0.100000,-0.100000)"><path d="M4645.6,4996.8c-973.3-65.4-1954.9-449.9-2727.8-1069.4c-349.7-282.2-758.6-732.1-1022.4-1126.7c-167.7-253.6-433.5-789.3-529.6-1065.4C173.6,1170.9,100,719,100,101.4c0-507.1,28.6-760.7,141.1-1206.4C738-3080.3,2449.5-4558.7,4488.2-4775.5c255.6-26.6,758.6-26.6,1014.2,0c1680.9,177.9,3165.4,1218.7,3899.5,2729.8c149.2,306.7,249.5,572.5,323.1,848.6c321.1,1198.3,198.4,2417-351.7,3506.9c-257.6,509.2-529.6,881.3-936.5,1282.1c-390.6,386.5-801.6,678.9-1284.1,916.1c-593,290.4-1173.7,443.7-1850.6,490.8C4979,5021.3,4989.2,5021.3,4645.6,4996.8z M5312.3,4015.2c1523.4-130.9,2823.9-1108.3,3353.5-2523.3c535.7-1431.4,210.6-3012-848.6-4108.1C7189.4-3266.4,6414.5-3659,5514.7-3783.7c-304.7-42.9-901.8-32.7-1194.2,20.4C3240.9-3567,2294.1-2939.2,1699-2025.2C1134.7-1158.2,938.4-68.3,1163.3,948c376.2,1682.9,1779,2915.9,3496.7,3067.2C4927.8,4039.8,5040.3,4039.8,5312.3,4015.2z"/><path d="M2377.9,1359v-286.3h2617.4h2617.4V1359v286.3H4995.3H2377.9V1359z"/><path d="M2377.9,91.2V-236h2617.4h2617.4V91.2v327.2H4995.3H2377.9V91.2z"/><path d="M2377.9-1258.4v-286.3h2617.4h2617.4v286.3v286.3H4995.3H2377.9V-1258.4z"/></g></g>
</svg>